<?xml version="1.0" standalone="no"?>
<!DOCTYPE svg PUBLIC "-//W3C//DTD SVG 20010904//EN"
 "http://www.w3.org/TR/2001/REC-SVG-20010904/DTD/svg10.dtd">
<svg version="1.0" xmlns="http://www.w3.org/2000/svg"
 width="639.200000pt" height="639.200000pt" viewBox="0 0 639.200000 639.200000"
 preserveAspectRatio="xMidYMid meet">
<metadata>
Created by potrace 1.13, written by Peter Selinger 2001-2015
</metadata>
<g transform="translate(0.000000,639.200000) scale(0.080000,-0.080000)"
fill="#000000" stroke="none">
<path d="M3993 7526 c-135 -44 -213 -148 -355 -470 -22 -50 -48 -110 -59 -132
-65 -144 -166 -428 -209 -589 -93 -343 -114 -454 -135 -704 -14 -161 -29 -284
-55 -431 -5 -30 -16 -98 -24 -150 -8 -52 -18 -115 -22 -140 -4 -25 -8 -160 -8
-300 -2 -237 -3 -259 -24 -318 -13 -35 -33 -80 -46 -100 -30 -48 -136 -146
-188 -175 -22 -12 -48 -27 -57 -32 -9 -6 -70 -39 -136 -74 -66 -35 -154 -82
-195 -104 -223 -119 -1248 -626 -1529 -756 -213 -99 -254 -125 -336 -213 -71
-77 -145 -214 -190 -353 -24 -72 -75 -277 -106 -425 -7 -30 -25 -109 -41 -175
-16 -66 -33 -138 -37 -160 -99 -460 -155 -756 -210 -1104 -28 -172 -31 -218
-31 -408 l0 -213 29 0 c28 0 29 2 35 63 4 34 18 123 32 197 13 74 33 187 45
250 119 659 191 924 464 1695 190 539 274 650 605 795 52 23 114 50 137 61 24
11 53 23 65 28 72 27 488 215 633 286 179 86 557 293 712 388 115 72 251 177
325 252 58 58 117 158 137 230 26 92 41 248 41 440 1 203 12 304 44 400 18 53
141 376 156 410 114 257 158 402 334 1100 25 97 62 336 85 537 22 193 72 255
228 288 111 23 219 -9 250 -74 14 -30 14 -36 -1 -68 -10 -20 -44 -61 -77 -93
-57 -55 -73 -84 -46 -86 25 -3 44 4 97 35 97 57 134 67 241 67 54 0 127 -5
161 -11 216 -39 581 -211 848 -399 77 -54 261 -198 420 -330 433 -358 584
-644 495 -937 -21 -69 -213 -546 -260 -649 -8 -16 -54 -122 -103 -235 -251
-581 -367 -840 -377 -837 -18 7 -9 213 14 332 49 251 147 646 193 780 11 33
60 157 108 275 95 234 123 321 141 447 13 97 6 153 -19 153 -10 0 -51 -34 -92
-76 -133 -136 -210 -167 -250 -102 -10 17 -28 71 -39 120 -25 106 -53 165 -87
180 -65 30 -91 -34 -120 -302 -47 -431 -55 -906 -23 -1260 11 -124 23 -283 26
-353 5 -123 5 -129 -13 -125 -41 7 -91 158 -140 418 -42 229 -70 433 -84 620
-17 236 -41 382 -86 524 -38 119 -76 187 -145 255 -106 106 -211 141 -233 78
-16 -44 5 -114 109 -367 151 -369 219 -590 200 -650 -6 -20 -8 -21 -26 -4 -10
9 -33 42 -50 73 -18 31 -40 70 -49 86 -10 17 -59 104 -110 195 -153 272 -198
344 -266 423 -153 179 -336 275 -508 265 -62 -3 -71 -7 -97 -36 -25 -28 -29
-41 -29 -89 0 -104 20 -130 220 -283 67 -52 303 -297 525 -545 214 -240 605
-802 605 -870 0 -41 -32 -7 -211 220 -239 305 -361 436 -446 479 -42 21 -59
20 -83 -4 -24 -24 -26 -64 -5 -113 19 -46 19 -62 -1 -81 -19 -20 -74 -20 -138
-1 -59 18 -128 19 -144 3 -33 -33 -2 -87 83 -145 28 -20 221 -118 310 -159
142 -64 318 -217 546 -474 148 -168 202 -221 284 -279 98 -71 249 -157 415
-238 133 -65 174 -84 420 -195 276 -125 534 -256 641 -327 200 -132 379 -339
379 -437 0 -17 -21 -66 -50 -114 -28 -47 -53 -94 -56 -105 -9 -29 -173 -487
-183 -510 -5 -11 -28 -65 -51 -120 -72 -171 -143 -285 -177 -285 -11 0 -14 6
-9 22 25 83 118 465 139 568 43 207 39 240 -20 181 -67 -66 -169 -325 -228
-577 -28 -122 -49 -180 -73 -207 -24 -27 -29 -7 -21 95 8 94 20 332 39 748 26
561 30 692 24 701 -16 27 -69 -59 -113 -185 -67 -189 -81 -265 -140 -740 -36
-290 -47 -379 -71 -626 -19 -193 -33 -664 -26 -862 l8 -198 172 0 172 0 160
162 c242 247 310 334 390 502 69 147 95 251 97 386 1 96 -2 122 -19 155 -43
89 -74 46 -165 -222 -83 -244 -117 -305 -326 -580 -155 -205 -188 -232 -239
-198 -41 27 -48 60 -31 142 28 129 112 275 320 557 182 246 255 379 337 611
59 169 118 381 150 539 16 76 23 63 55 -92 31 -154 41 -236 76 -612 5 -63 20
-171 32 -240 15 -91 21 -167 22 -280 l0 -155 -37 -75 c-56 -112 -209 -287
-443 -506 l-99 -94 151 0 151 0 57 61 c62 68 136 169 197 272 22 37 44 67 48
67 5 0 11 -19 14 -42 4 -24 23 -114 44 -200 l37 -158 87 0 88 0 0 33 c0 19 -5
83 -10 143 -6 60 -15 161 -20 224 -6 63 -15 158 -20 210 -5 52 -17 169 -25
260 -30 325 -36 387 -51 525 -53 507 -133 774 -300 1005 -198 276 -503 505
-1010 758 -205 103 -282 138 -427 196 -226 90 -307 157 -307 251 0 43 23 91
83 171 121 160 255 415 450 859 63 143 141 314 172 380 288 606 272 906 -69
1256 -92 94 -283 264 -396 350 -279 215 -814 529 -1075 630 -27 11 -63 26 -80
33 -16 7 -79 32 -140 56 -60 23 -168 66 -240 95 -200 81 -257 97 -370 101 -67
3 -114 -1 -142 -10z"/>
<path d="M3779 5387 c-8 -17 -7 -39 5 -82 10 -40 12 -64 5 -77 -20 -37 -43
-20 -113 85 -44 65 -60 77 -109 77 -64 0 -97 -59 -97 -174 0 -130 46 -241 134
-324 87 -82 160 -110 364 -137 146 -20 192 -36 277 -98 83 -61 155 -89 205
-80 109 18 133 86 73 206 -42 84 -102 131 -280 218 -189 92 -232 129 -307 259
-71 123 -93 150 -122 150 -16 0 -28 -8 -35 -23z"/>
<path d="M3432 4670 c-73 -17 -93 -70 -42 -113 47 -40 270 -145 323 -153 45
-6 47 -5 47 19 0 88 -118 216 -225 246 -45 12 -56 12 -103 1z"/>
<path d="M3917 4392 c-10 -10 -17 -23 -17 -29 0 -27 95 -84 225 -135 27 -11
109 -52 180 -92 72 -41 157 -88 190 -107 137 -76 225 -112 225 -92 0 11 -88
96 -155 149 -204 163 -507 324 -610 324 -12 0 -29 -8 -38 -18z"/>
<path d="M3700 3897 c-225 -62 -617 -223 -1005 -412 -347 -169 -468 -227 -705
-334 -169 -77 -247 -123 -386 -227 -115 -86 -190 -164 -181 -189 7 -17 38 -8
247 73 348 134 492 213 893 489 173 119 276 174 522 276 99 42 207 87 239 102
105 47 401 196 414 210 20 18 3 23 -38 12z"/>
<path d="M1189 1560 c-37 -21 -81 -116 -147 -315 -121 -362 -162 -563 -177
-865 -8 -173 -8 -172 -52 -168 -20 2 -40 10 -44 18 -5 8 -43 109 -85 225 -90
248 -170 454 -184 475 -9 13 -13 12 -26 -5 -48 -60 23 -373 193 -852 l26 -73
177 0 177 0 7 143 c9 205 64 640 91 727 9 29 60 466 72 618 6 82 3 90 -28 72z"/>
<path d="M1727 1013 c-8 -8 18 -56 223 -413 62 -107 164 -286 227 -397 l116
-203 173 0 c96 0 174 3 174 6 0 4 -230 265 -260 294 -13 13 -203 224 -261 290
-37 41 -101 123 -143 182 -90 126 -168 213 -207 233 -32 17 -33 17 -42 8z"/>
<path d="M5388 853 c-43 -97 -11 -225 164 -673 33 -85 66 -161 72 -168 9 -9
45 -12 133 -10 l121 3 -109 180 c-156 258 -240 430 -284 584 -25 86 -48 131
-66 131 -5 0 -19 -21 -31 -47z"/>
<path d="M3364 736 c-13 -53 75 -327 204 -636 l40 -95 112 -3 c110 -3 113 -2
99 17 -74 102 -120 182 -166 284 -95 211 -121 266 -162 335 -67 114 -113 150
-127 98z"/>
<path d="M4835 420 c-10 -30 19 -131 81 -282 l57 -138 124 0 c97 0 123 3 117
13 -86 144 -230 342 -284 391 -45 40 -85 47 -95 16z"/>
</g>
</svg>
